<?xml version="1.0" encoding="utf-8"?>
<!-- Generator: Adobe Illustrator 25.1.0, SVG Export Plug-In . SVG Version: 6.00 Build 0)  -->
<svg version="1.1" id="Layer_1" xmlns="http://www.w3.org/2000/svg" xmlns:xlink="http://www.w3.org/1999/xlink" x="0px" y="0px"
	 viewBox="0 0 512 512" style="enable-background:new 0 0 512 512;" xml:space="preserve">
<style type="text/css">
	.st0{clip-path:url(#SVGID_4_);}
	.st1{fill:url(#SVGID_5_);stroke:#000000;stroke-width:3;}
	.st2{fill:url(#SVGID_6_);stroke:#000000;stroke-width:3;stroke-miterlimit:10;}
	.st3{fill:url(#SVGID_7_);stroke:#000000;stroke-width:3;}
	.st4{clip-path:url(#SVGID_9_);}
	.st5{fill:none;stroke:#000000;stroke-width:8;stroke-linecap:round;stroke-linejoin:round;}
	.st6{fill:#F7931E;stroke:#000000;stroke-width:5;stroke-miterlimit:10;}
	.st7{fill:url(#SVGID_10_);stroke:#000000;stroke-width:5;stroke-miterlimit:10;}
	.st8{fill:url(#SVGID_11_);stroke:#000000;stroke-width:5;stroke-miterlimit:10;}
	.st9{fill:#FCEE21;stroke:url(#SVGID_12_);stroke-width:2;stroke-miterlimit:10;}
</style>
<g>
	<defs>
		<polygon id="SVGID_1_" points="5.17,406.21 492.4,46.11 495.06,407.81 		"/>
	</defs>
	<clipPath id="SVGID_2_">
		<use xlink:href="#SVGID_1_"  style="overflow:visible;"/>
	</clipPath>
</g>
<g>
	<defs>
		<polygon id="SVGID_3_" points="8.48,398.33 515.21,122.08 487.42,17.47 10.11,19.1 		"/>
	</defs>
	<clipPath id="SVGID_4_">
		<use xlink:href="#SVGID_3_"  style="overflow:visible;"/>
	</clipPath>
	<g class="st0">
		<linearGradient id="SVGID_5_" gradientUnits="userSpaceOnUse" x1="27.1196" y1="366.8945" x2="86.6196" y2="366.8945">
			<stop  offset="0" style="stop-color:#3DDEED"/>
			<stop  offset="1" style="stop-color:#3DDEED;stop-opacity:0"/>
		</linearGradient>
		<path class="st1" d="M27.12,366.89c0-18.5,12.5-31.5,30-31.5s29.5,13,29.5,31.5c0,18-11.5,31.5-30,31.5
			C39.12,398.39,27.12,384.89,27.12,366.89z"/>
		<linearGradient id="SVGID_6_" gradientUnits="userSpaceOnUse" x1="134.1976" y1="274.6445" x2="415.0143" y2="274.6445">
			<stop  offset="0" style="stop-color:#3DDEED"/>
			<stop  offset="1" style="stop-color:#3DDEED;stop-opacity:0"/>
		</linearGradient>
		<path class="st2" d="M343.61,326.89c0,25,0.5,47,2,66h-39l-2.5-39.5h-1c-11.5,19.5-37,45-80,45c-38,0-83.5-21-83.5-106v-141.5h44
			v134c0,46,14,77,54,77c29.5,0,50-20.5,58-40c2.5-6.5,4-14.5,4-22.5v-148.5h44V326.89z"/>
		<linearGradient id="SVGID_7_" gradientUnits="userSpaceOnUse" x1="411.1104" y1="224.1445" x2="465.6267" y2="224.1445">
			<stop  offset="0" style="stop-color:#3DDEED"/>
			<stop  offset="1" style="stop-color:#3DDEED;stop-opacity:0"/>
		</linearGradient>
		<path class="st3" d="M465.61,82.89c0.5,15-10.5,27-28,27c-15.5,0-26.5-12-26.5-27c0-15.5,11.5-27.5,27.5-27.5
			C455.11,55.39,465.61,67.39,465.61,82.89z M416.61,392.89v-242h44v242H416.61z"/>
	</g>
</g>
<g>
	<defs>
		<polygon id="SVGID_8_" points="9.11,397.33 512.58,122.72 505.22,488.06 10.74,483.97 		"/>
	</defs>
	<clipPath id="SVGID_9_">
		<use xlink:href="#SVGID_8_"  style="overflow:visible;"/>
	</clipPath>
	<g class="st4">
		<g>
			<g>
				<path class="st5" d="M41.45,341.83c0.57,0.99,1.26-4.8,3.02-1.74c2.68,4.64-16.27,24.65-16.27,24.65l39.54-22.83
					c0.38,0.65-49.28,42.57-49.28,42.57c3.46,5.99,72.79-42.03,72.79-42.03c0.78,1.34-72.56,39.57-65.63,51.57
					c5.3,9.18,51.02-29.45,51.02-29.45s-28.19,27.27-26.8,29.67c2.32,4.01,37.21-32.16,41.84-24.15c0,0-31.33,28.57-31.21,28.78
					c3.11,5.39,12.73-7.35,12.73-7.35"/>
				<path class="st5" d="M312.49,350.22l22.74-13.13l-23.71,24.96c3.8,6.59,22-12.7,22-12.7c2.38,4.12-27.08,21.01-22.87,28.29
					c0,0,28.49-24.59,32.02-18.48c5.46,9.45-32.47,16.29-27.3,25.24c0.62,1.08,23.15-13.37,23.15-13.37
					c0.42,0.73-22.67,23.03-22.67,23.03c3.07,5.32,29.3-16.93,29.3-16.92c0.31,0.53-7.76,15.98-7.76,15.98l6.73-3.89"/>
				<path class="st5" d="M296.32,155.1c0,0,10.48-6.47,10.66-6.16l-14.81,18.35c0,0,20.2-13.76,21.11-12.19
					c1.04,1.8-16.51,24.13-16.51,24.13c0.67,1.16,39.83-23,39.83-23c5.05,8.74-48.35,42.96-48.35,42.96s44.88-32.87,47.89-27.65
					c0,0-36.15,31.75-35.64,32.65c3.8,6.59,32.36-24.55,34.9-20.15l-36.87,36.17c7.9,13.69,41.07-23.71,41.07-23.71
					c7.36,12.74-44.96,35.81-44.96,35.81c7.58,13.14,57.93-33.44,57.93-33.44c7.19,12.45-58.36,29.48-51.4,41.52
					c0,0,52.1-31.48,52.7-30.43c0,0-62.81,40.41-58.48,47.92l45.88-26.49l-43.43,37.38c2.44,4.22,29.88-27.1,34.14-19.71
					l-29.48,30.08c3.09,5.35,34.27-36.27,41.4-23.9c0,0-57.7,30.23-51.72,40.59c5.65,9.79,40.97-23.65,40.97-23.65l-30.01,32.69
					c0,0,39.1-37.16,45.42-26.22c0,0-69.89,33.93-61.67,48.17c6.94,12.02,47.34-43.17,54.19-31.29c0,0-70.65,42.24-65.36,51.4
					c1.17,2.04,57.55-59.75,69.03-39.86"/>
				<path class="st5" d="M139.29,153.4c0.13,0.22,3.61-2.99,4-2.31c1.54,2.67-2.63,16.78-2.63,16.78l24.92-14.38
					c0.29,0.51-36.44,35.15-36.44,35.15c2.9,5.02,64.25-37.1,64.25-37.1c0.75,1.29-69.58,38.45-62.91,50
					c4.56,7.9,43.89-25.34,43.89-25.34s-32.4,29.34-30.85,32.01c2.54,4.4,40.61-35.14,45.68-26.37c0,0-51.42,40.57-51.23,40.9
					c7.65,13.24,38.8-22.4,38.8-22.4l-42.28,40.09c3.91,6.78,38.32-30.95,42.14-24.33l-36.75,31.46
					c3.96,6.85,32.67-18.86,32.67-18.86c6.42,11.13-39.16,27.19-35.65,33.26c1.3,2.26,53.29-30.77,53.29-30.77
					s-55.12,37.19-50.58,45.06c2.34,4.05,41.22-38.3,47.5-27.42c9.52,16.48-66.72,30.17-57.31,46.47c0,0,51.73-37.96,55.23-31.89
					c0,0-46.68,34.97-45.38,37.22c0,0,33.72-26.09,36.59-21.12c2.99,5.19-34.25,32.39-34.25,32.39l37.73-21.78
					c8.06,13.96-54.04,30.29-47.25,42.05c3.32,5.75,47.1-27.19,47.1-27.19s-37.39,29.81-34.19,35.34c0,0,43.64-38.2,49.27-28.45
					l-34.7,35.72c0,0,16.15-21.64,21.48-12.4c4.33,7.49-34.28,29.82-34.28,29.82s53.88-37.55,56.66-32.72
					c0.91,1.58-35.08,30.13-35.08,30.13c6.84,11.84,38.2-22.06,38.2-22.06c2.06,3.56-29.68,32.02-29.68,32.02l21.64-12.49
					l-15.09,20.9c3.3,5.72,34-24.58,36.14-20.87c0,0-37.73,31.55-36.58,33.54c0.21,0.36,40.52-35.61,45.81-26.45
					c1.75,3.03-28.02,20.78-24.78,26.41c6.39,11.06,146.76-84.73,146.76-84.73c23.5,40.7-153.5,56.08-134.25,89.42
					c4.23,7.33,133.86-77.28,133.86-77.28c11.85,20.52-127.03,38.14-106.98,72.86c0,0,43.04-31.79,46.04-26.58"/>
				<path class="st5" d="M413.34,155.1c0,0,10.48-6.47,10.66-6.16l-14.81,18.35c0,0,20.2-13.77,21.11-12.19
					c1.04,1.8-16.52,24.14-16.52,24.14c0.67,1.16,39.81-22.98,39.81-22.98c5.05,8.74-48.33,42.95-48.33,42.95
					s44.86-32.85,47.87-27.64c0,0-36.14,31.74-35.62,32.64c3.8,6.58,32.35-24.54,34.88-20.14l-36.86,36.16
					c7.9,13.69,41.06-23.71,41.06-23.71c7.36,12.74-44.95,35.8-44.95,35.8c7.58,13.13,57.92-33.44,57.92-33.44
					c7.19,12.45-58.35,29.47-51.4,41.51c0,0,52.1-31.47,52.7-30.43c0,0-62.81,40.41-58.48,47.92l45.88-26.49l-43.43,37.38
					c2.44,4.23,29.89-27.1,34.15-19.72l-29.49,30.08c3.09,5.36,34.27-36.27,41.41-23.91c0,0-57.71,30.24-51.73,40.59
					c5.65,9.79,40.98-23.66,40.98-23.66l-29.56,32.43c0,0,38.72-36.79,44.97-25.96c0,0-65.48,32.48-57.73,45.9
					c6.37,11.03,43.97-39.92,50.26-29.02c0,0-50.13,35.3-46.15,42.19c0.82,1.42,41.83-42.61,49.82-28.77l-56.56,44.58
					c4.03,6.99,48.22-27.84,48.22-27.84c3.08,5.33-50.78,27.78-44.47,38.7c7.83,13.57,54.29-31.34,54.29-31.34l-37.28,33.74
					c0,0,42-28.02,43.63-25.19l-59.24,47.45c3.47,6.01,58.88-33.99,58.88-33.99c0.17,0.3-48.72,35.19-46.5,39.03l45.83-26.46
					c0,0-25.94,17.34-22.33,23.58c0,0,4.35-8.97,7.15-4.13"/>
				<path class="st5" d="M424.38,61.39c0.55,0.96,0.71-4.35,2.41-1.39c2.52,4.37-14.6,23.69-14.6,23.69l37.11-21.43
					c0.35,0.61-45.28,40.26-45.28,40.26c3.14,5.45,68.04-39.28,68.04-39.28c0.7,1.21-64.8,36.64-58.55,47.48
					c4.44,7.7,42.77-24.69,42.77-24.69s-13.53,20.01-12.67,21.51c1.3,2.26,21.69-18.53,24.29-14.03"/>
			</g>
		</g>
	</g>
</g>
<g>
	
		<rect x="-8.33" y="270.16" transform="matrix(0.8728 -0.4881 0.4881 0.8728 -105.4896 154.3725)" class="st6" width="503.48" height="18.8"/>
	
		<linearGradient id="SVGID_10_" gradientUnits="userSpaceOnUse" x1="4.4346" y1="304.1082" x2="508.7491" y2="304.1082" gradientTransform="matrix(0.9263 0.0412 0.0412 0.977 6.3266 -3.5381)">
		<stop  offset="0" style="stop-color:#FFFFFF"/>
		<stop  offset="1" style="stop-color:#000000"/>
	</linearGradient>
	<polygon class="st7" points="485.16,197.19 45.73,442.94 27.92,411.08 467.35,165.33 	"/>
	
		<linearGradient id="SVGID_11_" gradientUnits="userSpaceOnUse" x1="258.7944" y1="437.5904" x2="368.2459" y2="376.4443" gradientTransform="matrix(0.9263 0.0412 0.0412 0.977 6.3266 -3.5381)">
		<stop  offset="0" style="stop-color:#FFFFFF"/>
		<stop  offset="1" style="stop-color:#000000"/>
	</linearGradient>
	<path class="st8" d="M366.47,490.25l-10.08,5.64c-4.43,2.48-10.03,0.89-12.51-3.54l-91.66-163.89l26.42-14.77l91.49,163.6
		C372.7,481.87,371.06,487.68,366.47,490.25z"/>
</g>
<linearGradient id="SVGID_12_" gradientUnits="userSpaceOnUse" x1="131.5729" y1="146.6406" x2="258.0484" y2="146.6406">
	<stop  offset="0" style="stop-color:#FF7300"/>
	<stop  offset="0.1771" style="stop-color:#F97C01"/>
	<stop  offset="0.4705" style="stop-color:#EA9602"/>
	<stop  offset="0.5521" style="stop-color:#E59E03"/>
	<stop  offset="0.8652" style="stop-color:#E5C500"/>
	<stop  offset="0.9944" style="stop-color:#BF6F00"/>
</linearGradient>
<polygon class="st9" points="248.59,138.69 200.96,154.64 221.93,200.29 192.04,159.92 155.1,193.97 184.26,153.06 140.47,128.46 
	188.38,143.55 198.24,94.3 198.7,144.53 "/>
</svg>
